<mxfile host="app.diagrams.net" agent="Mozilla/5.0 (Windows NT 10.0; Win64; x64) AppleWebKit/537.36 (KHTML, like Gecko) Chrome/136.0.0.0 Safari/537.36" version="27.1.6">
  <diagram name="第 1 页" id="ppvrVaXlh95NXs2o1wLH">
    <mxGraphModel dx="2205" dy="1147" grid="1" gridSize="10" guides="1" tooltips="1" connect="1" arrows="1" fold="1" page="1" pageScale="1" pageWidth="827" pageHeight="1169" math="0" shadow="0">
      <root>
        <mxCell id="0" />
        <mxCell id="1" parent="0" />
        <mxCell id="eUsla7bg31HYFWPKL4C8-1" value="" style="rounded=0;whiteSpace=wrap;html=1;fillColor=#f5f5f5;fontColor=#333333;strokeColor=#666666;" vertex="1" parent="1">
          <mxGeometry x="380" y="320" width="840" height="670" as="geometry" />
        </mxCell>
        <mxCell id="eUsla7bg31HYFWPKL4C8-2" value="" style="rounded=0;whiteSpace=wrap;html=1;strokeWidth=2;" vertex="1" parent="1">
          <mxGeometry x="714" y="470.5" width="123" height="70" as="geometry" />
        </mxCell>
        <mxCell id="eUsla7bg31HYFWPKL4C8-3" value="" style="rounded=0;whiteSpace=wrap;html=1;verticalAlign=bottom;strokeWidth=2;fillColor=none;" vertex="1" parent="1">
          <mxGeometry x="714" y="406" width="123" height="43.5" as="geometry" />
        </mxCell>
        <mxCell id="eUsla7bg31HYFWPKL4C8-4" value="" style="rounded=0;whiteSpace=wrap;html=1;strokeWidth=2;" vertex="1" parent="1">
          <mxGeometry x="700" y="562.75" width="310" height="101.75" as="geometry" />
        </mxCell>
        <mxCell id="eUsla7bg31HYFWPKL4C8-5" value="" style="group" vertex="1" connectable="0" parent="1">
          <mxGeometry x="720" y="510.5" width="129.25" height="60.25" as="geometry" />
        </mxCell>
        <mxCell id="eUsla7bg31HYFWPKL4C8-6" value="&lt;span style=&quot;font-weight: normal;&quot;&gt;cacheline&lt;/span&gt;" style="rounded=0;whiteSpace=wrap;html=1;verticalAlign=top;labelPosition=center;verticalLabelPosition=middle;align=center;fontStyle=1;strokeWidth=2;" vertex="1" parent="eUsla7bg31HYFWPKL4C8-5">
          <mxGeometry x="7" y="-18" width="97" height="39.5" as="geometry" />
        </mxCell>
        <mxCell id="eUsla7bg31HYFWPKL4C8-7" value="" style="rounded=0;whiteSpace=wrap;html=1;container=0;fillColor=#CC0000;" vertex="1" parent="eUsla7bg31HYFWPKL4C8-5">
          <mxGeometry x="55" y="8.5" width="12" height="12" as="geometry" />
        </mxCell>
        <mxCell id="eUsla7bg31HYFWPKL4C8-8" value="" style="rounded=0;whiteSpace=wrap;html=1;container=0;fillColor=#CC0000;" vertex="1" parent="eUsla7bg31HYFWPKL4C8-5">
          <mxGeometry x="67" y="8.5" width="12" height="12" as="geometry" />
        </mxCell>
        <mxCell id="eUsla7bg31HYFWPKL4C8-9" value="" style="rounded=0;whiteSpace=wrap;html=1;container=0;fillColor=#CC0000;" vertex="1" parent="eUsla7bg31HYFWPKL4C8-5">
          <mxGeometry x="79" y="8.5" width="12" height="12" as="geometry" />
        </mxCell>
        <mxCell id="eUsla7bg31HYFWPKL4C8-10" value="" style="rounded=0;whiteSpace=wrap;html=1;container=0;fillColor=#CC0000;" vertex="1" parent="eUsla7bg31HYFWPKL4C8-5">
          <mxGeometry x="91" y="8.5" width="12" height="12" as="geometry" />
        </mxCell>
        <mxCell id="eUsla7bg31HYFWPKL4C8-11" value="" style="rounded=0;whiteSpace=wrap;html=1;container=0;fillColor=#CC0000;" vertex="1" parent="eUsla7bg31HYFWPKL4C8-5">
          <mxGeometry x="7" y="8.5" width="12" height="12" as="geometry" />
        </mxCell>
        <mxCell id="eUsla7bg31HYFWPKL4C8-12" value="" style="rounded=0;whiteSpace=wrap;html=1;container=0;fillColor=#CC0000;" vertex="1" parent="eUsla7bg31HYFWPKL4C8-5">
          <mxGeometry x="19" y="8.5" width="12" height="12" as="geometry" />
        </mxCell>
        <mxCell id="eUsla7bg31HYFWPKL4C8-13" value="" style="rounded=0;whiteSpace=wrap;html=1;container=0;fillColor=#CC0000;" vertex="1" parent="eUsla7bg31HYFWPKL4C8-5">
          <mxGeometry x="31" y="8.5" width="12" height="12" as="geometry" />
        </mxCell>
        <mxCell id="eUsla7bg31HYFWPKL4C8-14" value="" style="rounded=0;whiteSpace=wrap;html=1;container=0;fillColor=#CC0000;" vertex="1" parent="eUsla7bg31HYFWPKL4C8-5">
          <mxGeometry x="43" y="8.5" width="12" height="12" as="geometry" />
        </mxCell>
        <mxCell id="eUsla7bg31HYFWPKL4C8-15" value="&lt;b&gt;L2 Cache&lt;/b&gt;" style="text;html=1;strokeColor=none;fillColor=none;align=center;verticalAlign=middle;whiteSpace=wrap;rounded=0;" vertex="1" parent="1">
          <mxGeometry x="737" y="473.5" width="80" height="15" as="geometry" />
        </mxCell>
        <mxCell id="eUsla7bg31HYFWPKL4C8-16" style="edgeStyle=none;rounded=0;orthogonalLoop=1;jettySize=auto;html=1;exitX=0.25;exitY=1;exitDx=0;exitDy=0;entryX=0.375;entryY=-0.2;entryDx=0;entryDy=0;entryPerimeter=0;endArrow=none;endFill=0;strokeWidth=5;" edge="1" parent="1">
          <mxGeometry relative="1" as="geometry">
            <mxPoint x="772.75" y="449.5" as="sourcePoint" />
            <mxPoint x="773" y="470.5" as="targetPoint" />
          </mxGeometry>
        </mxCell>
        <mxCell id="eUsla7bg31HYFWPKL4C8-17" value="&lt;b&gt;CPU 0&lt;/b&gt;" style="text;html=1;strokeColor=none;fillColor=none;align=center;verticalAlign=middle;whiteSpace=wrap;rounded=0;" vertex="1" parent="1">
          <mxGeometry x="754" y="434.5" width="51" height="15" as="geometry" />
        </mxCell>
        <mxCell id="eUsla7bg31HYFWPKL4C8-18" style="edgeStyle=none;rounded=0;orthogonalLoop=1;jettySize=auto;html=1;exitX=0.25;exitY=1;exitDx=0;exitDy=0;entryX=0.75;entryY=0;entryDx=0;entryDy=0;strokeColor=#CC0000;strokeWidth=2;" edge="1" parent="1" source="eUsla7bg31HYFWPKL4C8-19" target="eUsla7bg31HYFWPKL4C8-11">
          <mxGeometry relative="1" as="geometry" />
        </mxCell>
        <mxCell id="eUsla7bg31HYFWPKL4C8-19" value="&lt;font color=&quot;#cc0000&quot;&gt;thread 0&lt;/font&gt;" style="rounded=0;whiteSpace=wrap;html=1;fillColor=none;strokeColor=#CC0000;strokeWidth=2;" vertex="1" parent="1">
          <mxGeometry x="721" y="411.5" width="60" height="20" as="geometry" />
        </mxCell>
        <mxCell id="eUsla7bg31HYFWPKL4C8-20" value="" style="sketch=0;pointerEvents=1;shadow=0;dashed=0;html=1;strokeColor=none;fillColor=#434445;aspect=fixed;labelPosition=center;verticalLabelPosition=bottom;verticalAlign=top;align=center;outlineConnect=0;shape=mxgraph.vvd.cpu;strokeWidth=2;gradientColor=none;" vertex="1" parent="1">
          <mxGeometry x="807" y="418.25" width="19" height="19" as="geometry" />
        </mxCell>
        <mxCell id="eUsla7bg31HYFWPKL4C8-21" value="" style="rounded=0;whiteSpace=wrap;html=1;strokeWidth=2;" vertex="1" parent="1">
          <mxGeometry x="875" y="470.5" width="123" height="70" as="geometry" />
        </mxCell>
        <mxCell id="eUsla7bg31HYFWPKL4C8-22" value="" style="rounded=0;whiteSpace=wrap;html=1;verticalAlign=bottom;strokeWidth=2;fillColor=none;" vertex="1" parent="1">
          <mxGeometry x="875" y="406" width="123" height="43.5" as="geometry" />
        </mxCell>
        <mxCell id="eUsla7bg31HYFWPKL4C8-23" value="" style="group" vertex="1" connectable="0" parent="1">
          <mxGeometry x="888" y="504.5" width="129.25" height="60.25" as="geometry" />
        </mxCell>
        <mxCell id="eUsla7bg31HYFWPKL4C8-24" value="&lt;span style=&quot;font-weight: normal;&quot;&gt;cacheline&lt;/span&gt;" style="rounded=0;whiteSpace=wrap;html=1;verticalAlign=top;labelPosition=center;verticalLabelPosition=middle;align=center;fontStyle=1;strokeWidth=2;" vertex="1" parent="eUsla7bg31HYFWPKL4C8-23">
          <mxGeometry y="-12" width="97" height="39.5" as="geometry" />
        </mxCell>
        <mxCell id="eUsla7bg31HYFWPKL4C8-25" value="" style="rounded=0;whiteSpace=wrap;html=1;container=0;fillColor=#CC6600;" vertex="1" parent="eUsla7bg31HYFWPKL4C8-23">
          <mxGeometry x="48" y="14.5" width="12" height="12" as="geometry" />
        </mxCell>
        <mxCell id="eUsla7bg31HYFWPKL4C8-26" value="" style="rounded=0;whiteSpace=wrap;html=1;container=0;fillColor=#CC6600;" vertex="1" parent="eUsla7bg31HYFWPKL4C8-23">
          <mxGeometry x="60" y="14.5" width="12" height="12" as="geometry" />
        </mxCell>
        <mxCell id="eUsla7bg31HYFWPKL4C8-27" value="" style="rounded=0;whiteSpace=wrap;html=1;container=0;fillColor=#CC6600;" vertex="1" parent="eUsla7bg31HYFWPKL4C8-23">
          <mxGeometry x="72" y="14.5" width="12" height="12" as="geometry" />
        </mxCell>
        <mxCell id="eUsla7bg31HYFWPKL4C8-28" value="" style="rounded=0;whiteSpace=wrap;html=1;container=0;fillColor=#CC6600;" vertex="1" parent="eUsla7bg31HYFWPKL4C8-23">
          <mxGeometry x="84" y="14.5" width="12" height="12" as="geometry" />
        </mxCell>
        <mxCell id="eUsla7bg31HYFWPKL4C8-29" value="" style="rounded=0;whiteSpace=wrap;html=1;container=0;fillColor=#CC6600;" vertex="1" parent="eUsla7bg31HYFWPKL4C8-23">
          <mxGeometry y="14.5" width="12" height="12" as="geometry" />
        </mxCell>
        <mxCell id="eUsla7bg31HYFWPKL4C8-30" value="" style="rounded=0;whiteSpace=wrap;html=1;container=0;fillColor=#CC6600;" vertex="1" parent="eUsla7bg31HYFWPKL4C8-23">
          <mxGeometry x="12" y="14.5" width="12" height="12" as="geometry" />
        </mxCell>
        <mxCell id="eUsla7bg31HYFWPKL4C8-31" value="" style="rounded=0;whiteSpace=wrap;html=1;container=0;fillColor=#CC6600;" vertex="1" parent="eUsla7bg31HYFWPKL4C8-23">
          <mxGeometry x="24" y="14.5" width="12" height="12" as="geometry" />
        </mxCell>
        <mxCell id="eUsla7bg31HYFWPKL4C8-32" value="" style="rounded=0;whiteSpace=wrap;html=1;container=0;fillColor=#CC6600;" vertex="1" parent="eUsla7bg31HYFWPKL4C8-23">
          <mxGeometry x="36" y="14.5" width="12" height="12" as="geometry" />
        </mxCell>
        <mxCell id="eUsla7bg31HYFWPKL4C8-33" value="&lt;b&gt;L2 Cache&lt;/b&gt;" style="text;html=1;strokeColor=none;fillColor=none;align=center;verticalAlign=middle;whiteSpace=wrap;rounded=0;" vertex="1" parent="1">
          <mxGeometry x="898" y="473.5" width="80" height="15" as="geometry" />
        </mxCell>
        <mxCell id="eUsla7bg31HYFWPKL4C8-34" value="&lt;b&gt;CPU 1&lt;/b&gt;" style="text;html=1;strokeColor=none;fillColor=none;align=center;verticalAlign=middle;whiteSpace=wrap;rounded=0;" vertex="1" parent="1">
          <mxGeometry x="915" y="434.5" width="51" height="15" as="geometry" />
        </mxCell>
        <mxCell id="eUsla7bg31HYFWPKL4C8-35" style="edgeStyle=none;rounded=0;orthogonalLoop=1;jettySize=auto;html=1;exitX=0.25;exitY=1;exitDx=0;exitDy=0;entryX=0.75;entryY=0;entryDx=0;entryDy=0;strokeColor=#CC6600;strokeWidth=2;" edge="1" parent="1" source="eUsla7bg31HYFWPKL4C8-36" target="eUsla7bg31HYFWPKL4C8-29">
          <mxGeometry relative="1" as="geometry" />
        </mxCell>
        <mxCell id="eUsla7bg31HYFWPKL4C8-36" value="&lt;font color=&quot;#cc6600&quot;&gt;thread 1&lt;/font&gt;" style="rounded=0;whiteSpace=wrap;html=1;fillColor=none;strokeColor=#CC6600;strokeWidth=2;" vertex="1" parent="1">
          <mxGeometry x="882" y="411.5" width="60" height="20" as="geometry" />
        </mxCell>
        <mxCell id="eUsla7bg31HYFWPKL4C8-37" value="" style="sketch=0;pointerEvents=1;shadow=0;dashed=0;html=1;strokeColor=none;fillColor=#434445;aspect=fixed;labelPosition=center;verticalLabelPosition=bottom;verticalAlign=top;align=center;outlineConnect=0;shape=mxgraph.vvd.cpu;strokeWidth=2;gradientColor=none;" vertex="1" parent="1">
          <mxGeometry x="968" y="418.25" width="19" height="19" as="geometry" />
        </mxCell>
        <mxCell id="eUsla7bg31HYFWPKL4C8-38" value="&lt;font style=&quot;font-size: 10px;&quot;&gt;HashMap&lt;/font&gt;" style="rounded=0;whiteSpace=wrap;html=1;verticalAlign=middle;horizontal=0;fontSize=9;fontStyle=1;strokeWidth=2;" vertex="1" parent="1">
          <mxGeometry x="936" y="578" width="30" height="60" as="geometry" />
        </mxCell>
        <mxCell id="eUsla7bg31HYFWPKL4C8-39" value="&lt;font style=&quot;font-weight: normal; font-size: 11px;&quot;&gt;HashMap&lt;/font&gt;" style="rounded=0;whiteSpace=wrap;html=1;verticalAlign=bottom;horizontal=0;fontSize=9;labelPosition=center;verticalLabelPosition=middle;align=center;fontStyle=1;strokeWidth=2;" vertex="1" parent="1">
          <mxGeometry x="717" y="578.5" width="210" height="60" as="geometry" />
        </mxCell>
        <mxCell id="eUsla7bg31HYFWPKL4C8-40" value="" style="rounded=0;whiteSpace=wrap;html=1;container=0;fillColor=#CC0000;" vertex="1" parent="1">
          <mxGeometry x="772" y="590" width="12" height="12" as="geometry" />
        </mxCell>
        <mxCell id="eUsla7bg31HYFWPKL4C8-41" value="" style="rounded=0;whiteSpace=wrap;html=1;container=0;fillColor=#CC0000;" vertex="1" parent="1">
          <mxGeometry x="784" y="590" width="12" height="12" as="geometry" />
        </mxCell>
        <mxCell id="eUsla7bg31HYFWPKL4C8-42" value="" style="rounded=0;whiteSpace=wrap;html=1;container=0;fillColor=#CC0000;" vertex="1" parent="1">
          <mxGeometry x="796" y="590" width="12" height="12" as="geometry" />
        </mxCell>
        <mxCell id="eUsla7bg31HYFWPKL4C8-43" value="" style="rounded=0;whiteSpace=wrap;html=1;container=0;fillColor=#CC0000;" vertex="1" parent="1">
          <mxGeometry x="808" y="590" width="12" height="12" as="geometry" />
        </mxCell>
        <mxCell id="eUsla7bg31HYFWPKL4C8-44" value="" style="rounded=0;whiteSpace=wrap;html=1;container=0;" vertex="1" parent="1">
          <mxGeometry x="724" y="590" width="12" height="12" as="geometry" />
        </mxCell>
        <mxCell id="eUsla7bg31HYFWPKL4C8-45" style="edgeStyle=orthogonalEdgeStyle;rounded=0;orthogonalLoop=1;jettySize=auto;html=1;exitX=0;exitY=0.5;exitDx=0;exitDy=0;entryX=0;entryY=0.75;entryDx=0;entryDy=0;strokeWidth=3;strokeColor=#7EA6E0;" edge="1" parent="1" source="eUsla7bg31HYFWPKL4C8-46" target="eUsla7bg31HYFWPKL4C8-6">
          <mxGeometry relative="1" as="geometry">
            <Array as="points">
              <mxPoint x="700" y="596.5" />
              <mxPoint x="700" y="522.5" />
            </Array>
          </mxGeometry>
        </mxCell>
        <mxCell id="eUsla7bg31HYFWPKL4C8-46" value="" style="rounded=0;whiteSpace=wrap;html=1;container=0;fillColor=#CC0000;" vertex="1" parent="1">
          <mxGeometry x="736" y="590" width="12" height="12" as="geometry" />
        </mxCell>
        <mxCell id="eUsla7bg31HYFWPKL4C8-47" value="" style="rounded=0;whiteSpace=wrap;html=1;container=0;fillColor=#CC0000;" vertex="1" parent="1">
          <mxGeometry x="748" y="590" width="12" height="12" as="geometry" />
        </mxCell>
        <mxCell id="eUsla7bg31HYFWPKL4C8-48" value="" style="rounded=0;whiteSpace=wrap;html=1;container=0;fillColor=#CC0000;" vertex="1" parent="1">
          <mxGeometry x="760" y="590" width="12" height="12" as="geometry" />
        </mxCell>
        <mxCell id="eUsla7bg31HYFWPKL4C8-49" value="" style="rounded=0;whiteSpace=wrap;html=1;container=0;fillColor=none;" vertex="1" parent="1">
          <mxGeometry x="772" y="602" width="12" height="12" as="geometry" />
        </mxCell>
        <mxCell id="eUsla7bg31HYFWPKL4C8-50" value="" style="rounded=0;whiteSpace=wrap;html=1;container=0;fillColor=none;" vertex="1" parent="1">
          <mxGeometry x="784" y="602" width="12" height="12" as="geometry" />
        </mxCell>
        <mxCell id="eUsla7bg31HYFWPKL4C8-51" value="" style="rounded=0;whiteSpace=wrap;html=1;container=0;fillColor=none;" vertex="1" parent="1">
          <mxGeometry x="796" y="602" width="12" height="12" as="geometry" />
        </mxCell>
        <mxCell id="eUsla7bg31HYFWPKL4C8-52" value="" style="rounded=0;whiteSpace=wrap;html=1;container=0;fillColor=#CC6600;" vertex="1" parent="1">
          <mxGeometry x="808" y="602" width="12" height="12" as="geometry" />
        </mxCell>
        <mxCell id="eUsla7bg31HYFWPKL4C8-53" value="" style="rounded=0;whiteSpace=wrap;html=1;container=0;fillColor=none;" vertex="1" parent="1">
          <mxGeometry x="724" y="602" width="12" height="12" as="geometry" />
        </mxCell>
        <mxCell id="eUsla7bg31HYFWPKL4C8-54" value="" style="rounded=0;whiteSpace=wrap;html=1;container=0;fillColor=none;" vertex="1" parent="1">
          <mxGeometry x="736" y="602" width="12" height="12" as="geometry" />
        </mxCell>
        <mxCell id="eUsla7bg31HYFWPKL4C8-55" value="" style="rounded=0;whiteSpace=wrap;html=1;container=0;fillColor=none;" vertex="1" parent="1">
          <mxGeometry x="748" y="602" width="12" height="12" as="geometry" />
        </mxCell>
        <mxCell id="eUsla7bg31HYFWPKL4C8-56" value="" style="rounded=0;whiteSpace=wrap;html=1;container=0;fillColor=none;" vertex="1" parent="1">
          <mxGeometry x="760" y="602" width="12" height="12" as="geometry" />
        </mxCell>
        <mxCell id="eUsla7bg31HYFWPKL4C8-57" value="" style="rounded=0;whiteSpace=wrap;html=1;container=0;" vertex="1" parent="1">
          <mxGeometry x="856" y="590" width="12" height="12" as="geometry" />
        </mxCell>
        <mxCell id="eUsla7bg31HYFWPKL4C8-58" value="" style="rounded=0;whiteSpace=wrap;html=1;container=0;" vertex="1" parent="1">
          <mxGeometry x="868" y="590" width="12" height="12" as="geometry" />
        </mxCell>
        <mxCell id="eUsla7bg31HYFWPKL4C8-59" value="" style="rounded=0;whiteSpace=wrap;html=1;container=0;" vertex="1" parent="1">
          <mxGeometry x="880" y="590" width="12" height="12" as="geometry" />
        </mxCell>
        <mxCell id="eUsla7bg31HYFWPKL4C8-60" value="" style="rounded=0;whiteSpace=wrap;html=1;container=0;" vertex="1" parent="1">
          <mxGeometry x="892" y="590" width="12" height="12" as="geometry" />
        </mxCell>
        <mxCell id="eUsla7bg31HYFWPKL4C8-61" value="" style="rounded=0;whiteSpace=wrap;html=1;container=0;fillColor=#CC0000;" vertex="1" parent="1">
          <mxGeometry x="808" y="590" width="12" height="12" as="geometry" />
        </mxCell>
        <mxCell id="eUsla7bg31HYFWPKL4C8-62" value="" style="rounded=0;whiteSpace=wrap;html=1;container=0;fillColor=#CC0000;" vertex="1" parent="1">
          <mxGeometry x="820" y="590" width="12" height="12" as="geometry" />
        </mxCell>
        <mxCell id="eUsla7bg31HYFWPKL4C8-63" value="" style="rounded=0;whiteSpace=wrap;html=1;container=0;" vertex="1" parent="1">
          <mxGeometry x="832" y="590" width="12" height="12" as="geometry" />
        </mxCell>
        <mxCell id="eUsla7bg31HYFWPKL4C8-64" value="" style="rounded=0;whiteSpace=wrap;html=1;container=0;" vertex="1" parent="1">
          <mxGeometry x="844" y="590" width="12" height="12" as="geometry" />
        </mxCell>
        <mxCell id="eUsla7bg31HYFWPKL4C8-65" value="" style="rounded=0;whiteSpace=wrap;html=1;container=0;fillColor=#CC6600;" vertex="1" parent="1">
          <mxGeometry x="856" y="602" width="12" height="12" as="geometry" />
        </mxCell>
        <mxCell id="eUsla7bg31HYFWPKL4C8-66" value="" style="rounded=0;whiteSpace=wrap;html=1;container=0;fillColor=#CC6600;" vertex="1" parent="1">
          <mxGeometry x="868" y="602" width="12" height="12" as="geometry" />
        </mxCell>
        <mxCell id="eUsla7bg31HYFWPKL4C8-67" value="" style="rounded=0;whiteSpace=wrap;html=1;container=0;fillColor=#CC6600;" vertex="1" parent="1">
          <mxGeometry x="880" y="602" width="12" height="12" as="geometry" />
        </mxCell>
        <mxCell id="eUsla7bg31HYFWPKL4C8-68" style="edgeStyle=orthogonalEdgeStyle;rounded=0;orthogonalLoop=1;jettySize=auto;html=1;exitX=1;exitY=0.25;exitDx=0;exitDy=0;entryX=0;entryY=0.75;entryDx=0;entryDy=0;strokeWidth=3;strokeColor=#7EA6E0;" edge="1" parent="1" source="eUsla7bg31HYFWPKL4C8-69" target="eUsla7bg31HYFWPKL4C8-24">
          <mxGeometry relative="1" as="geometry">
            <Array as="points">
              <mxPoint x="910" y="605.5" />
              <mxPoint x="910" y="567.5" />
              <mxPoint x="860" y="567.5" />
              <mxPoint x="860" y="522.5" />
            </Array>
          </mxGeometry>
        </mxCell>
        <mxCell id="eUsla7bg31HYFWPKL4C8-69" value="" style="rounded=0;whiteSpace=wrap;html=1;container=0;fillColor=#CC6600;" vertex="1" parent="1">
          <mxGeometry x="892" y="602" width="12" height="12" as="geometry" />
        </mxCell>
        <mxCell id="eUsla7bg31HYFWPKL4C8-70" value="" style="rounded=0;whiteSpace=wrap;html=1;container=0;fillColor=#CC6600;" vertex="1" parent="1">
          <mxGeometry x="808" y="602" width="12" height="12" as="geometry" />
        </mxCell>
        <mxCell id="eUsla7bg31HYFWPKL4C8-71" value="" style="rounded=0;whiteSpace=wrap;html=1;container=0;fillColor=#CC6600;" vertex="1" parent="1">
          <mxGeometry x="820" y="602" width="12" height="12" as="geometry" />
        </mxCell>
        <mxCell id="eUsla7bg31HYFWPKL4C8-72" value="" style="rounded=0;whiteSpace=wrap;html=1;container=0;fillColor=#CC6600;" vertex="1" parent="1">
          <mxGeometry x="832" y="602" width="12" height="12" as="geometry" />
        </mxCell>
        <mxCell id="eUsla7bg31HYFWPKL4C8-73" value="" style="rounded=0;whiteSpace=wrap;html=1;container=0;fillColor=#CC6600;" vertex="1" parent="1">
          <mxGeometry x="844" y="602" width="12" height="12" as="geometry" />
        </mxCell>
        <mxCell id="eUsla7bg31HYFWPKL4C8-74" value="" style="rounded=0;whiteSpace=wrap;html=1;container=0;" vertex="1" parent="1">
          <mxGeometry x="772" y="614" width="12" height="12" as="geometry" />
        </mxCell>
        <mxCell id="eUsla7bg31HYFWPKL4C8-75" value="" style="rounded=0;whiteSpace=wrap;html=1;container=0;" vertex="1" parent="1">
          <mxGeometry x="784" y="614" width="12" height="12" as="geometry" />
        </mxCell>
        <mxCell id="eUsla7bg31HYFWPKL4C8-76" value="" style="rounded=0;whiteSpace=wrap;html=1;container=0;" vertex="1" parent="1">
          <mxGeometry x="796" y="614" width="12" height="12" as="geometry" />
        </mxCell>
        <mxCell id="eUsla7bg31HYFWPKL4C8-77" value="" style="rounded=0;whiteSpace=wrap;html=1;container=0;" vertex="1" parent="1">
          <mxGeometry x="808" y="614" width="12" height="12" as="geometry" />
        </mxCell>
        <mxCell id="eUsla7bg31HYFWPKL4C8-78" value="" style="rounded=0;whiteSpace=wrap;html=1;container=0;" vertex="1" parent="1">
          <mxGeometry x="724" y="614" width="12" height="12" as="geometry" />
        </mxCell>
        <mxCell id="eUsla7bg31HYFWPKL4C8-79" value="" style="rounded=0;whiteSpace=wrap;html=1;container=0;" vertex="1" parent="1">
          <mxGeometry x="736" y="614" width="12" height="12" as="geometry" />
        </mxCell>
        <mxCell id="eUsla7bg31HYFWPKL4C8-80" value="" style="rounded=0;whiteSpace=wrap;html=1;container=0;" vertex="1" parent="1">
          <mxGeometry x="748" y="614" width="12" height="12" as="geometry" />
        </mxCell>
        <mxCell id="eUsla7bg31HYFWPKL4C8-81" value="" style="rounded=0;whiteSpace=wrap;html=1;container=0;" vertex="1" parent="1">
          <mxGeometry x="760" y="614" width="12" height="12" as="geometry" />
        </mxCell>
        <mxCell id="eUsla7bg31HYFWPKL4C8-82" value="" style="rounded=0;whiteSpace=wrap;html=1;container=0;" vertex="1" parent="1">
          <mxGeometry x="856" y="614" width="12" height="12" as="geometry" />
        </mxCell>
        <mxCell id="eUsla7bg31HYFWPKL4C8-83" value="" style="rounded=0;whiteSpace=wrap;html=1;container=0;" vertex="1" parent="1">
          <mxGeometry x="868" y="614" width="12" height="12" as="geometry" />
        </mxCell>
        <mxCell id="eUsla7bg31HYFWPKL4C8-84" value="" style="rounded=0;whiteSpace=wrap;html=1;container=0;" vertex="1" parent="1">
          <mxGeometry x="880" y="614" width="12" height="12" as="geometry" />
        </mxCell>
        <mxCell id="eUsla7bg31HYFWPKL4C8-85" value="" style="rounded=0;whiteSpace=wrap;html=1;container=0;" vertex="1" parent="1">
          <mxGeometry x="892" y="614" width="12" height="12" as="geometry" />
        </mxCell>
        <mxCell id="eUsla7bg31HYFWPKL4C8-86" value="" style="rounded=0;whiteSpace=wrap;html=1;container=0;" vertex="1" parent="1">
          <mxGeometry x="808" y="614" width="12" height="12" as="geometry" />
        </mxCell>
        <mxCell id="eUsla7bg31HYFWPKL4C8-87" value="" style="rounded=0;whiteSpace=wrap;html=1;container=0;" vertex="1" parent="1">
          <mxGeometry x="820" y="614" width="12" height="12" as="geometry" />
        </mxCell>
        <mxCell id="eUsla7bg31HYFWPKL4C8-88" value="" style="rounded=0;whiteSpace=wrap;html=1;container=0;" vertex="1" parent="1">
          <mxGeometry x="832" y="614" width="12" height="12" as="geometry" />
        </mxCell>
        <mxCell id="eUsla7bg31HYFWPKL4C8-89" value="" style="rounded=0;whiteSpace=wrap;html=1;container=0;" vertex="1" parent="1">
          <mxGeometry x="844" y="614" width="12" height="12" as="geometry" />
        </mxCell>
        <mxCell id="eUsla7bg31HYFWPKL4C8-90" value="&lt;font style=&quot;font-size: 10px;&quot;&gt;HashMap&lt;/font&gt;" style="rounded=0;whiteSpace=wrap;html=1;verticalAlign=middle;horizontal=0;fontSize=9;fontStyle=1;strokeWidth=2;" vertex="1" parent="1">
          <mxGeometry x="944" y="578" width="30" height="60" as="geometry" />
        </mxCell>
        <mxCell id="eUsla7bg31HYFWPKL4C8-91" value="&lt;font style=&quot;font-size: 10px;&quot;&gt;HashMap&lt;/font&gt;" style="rounded=0;whiteSpace=wrap;html=1;verticalAlign=middle;horizontal=0;fontSize=9;fontStyle=1;strokeWidth=2;" vertex="1" parent="1">
          <mxGeometry x="954" y="578" width="30" height="60" as="geometry" />
        </mxCell>
        <mxCell id="eUsla7bg31HYFWPKL4C8-92" value="&lt;font style=&quot;font-size: 10px;&quot;&gt;HashMap&lt;/font&gt;" style="rounded=0;whiteSpace=wrap;html=1;verticalAlign=middle;horizontal=0;fontSize=9;fontStyle=0;strokeWidth=2;" vertex="1" parent="1">
          <mxGeometry x="964" y="578" width="30" height="60" as="geometry" />
        </mxCell>
        <mxCell id="eUsla7bg31HYFWPKL4C8-93" value="&lt;b&gt;Memory&lt;/b&gt;" style="text;html=1;strokeColor=none;fillColor=none;align=center;verticalAlign=middle;whiteSpace=wrap;rounded=0;" vertex="1" parent="1">
          <mxGeometry x="823" y="644.5" width="60" height="16" as="geometry" />
        </mxCell>
        <mxCell id="eUsla7bg31HYFWPKL4C8-94" style="edgeStyle=none;rounded=0;orthogonalLoop=1;jettySize=auto;html=1;exitX=0.25;exitY=1;exitDx=0;exitDy=0;entryX=0.375;entryY=-0.2;entryDx=0;entryDy=0;entryPerimeter=0;endArrow=none;endFill=0;strokeWidth=5;" edge="1" parent="1">
          <mxGeometry relative="1" as="geometry">
            <mxPoint x="937" y="449.5" as="sourcePoint" />
            <mxPoint x="937" y="470.5" as="targetPoint" />
          </mxGeometry>
        </mxCell>
        <mxCell id="eUsla7bg31HYFWPKL4C8-95" style="edgeStyle=none;rounded=0;orthogonalLoop=1;jettySize=auto;html=1;exitX=0.25;exitY=1;exitDx=0;exitDy=0;entryX=0.375;entryY=-0.2;entryDx=0;entryDy=0;entryPerimeter=0;endArrow=none;endFill=0;strokeWidth=4;" edge="1" parent="1">
          <mxGeometry relative="1" as="geometry">
            <mxPoint x="772.75" y="540.5" as="sourcePoint" />
            <mxPoint x="773" y="561.5" as="targetPoint" />
          </mxGeometry>
        </mxCell>
        <mxCell id="eUsla7bg31HYFWPKL4C8-96" style="edgeStyle=none;rounded=0;orthogonalLoop=1;jettySize=auto;html=1;exitX=0.25;exitY=1;exitDx=0;exitDy=0;entryX=0.375;entryY=-0.2;entryDx=0;entryDy=0;entryPerimeter=0;endArrow=none;endFill=0;strokeWidth=4;" edge="1" parent="1">
          <mxGeometry relative="1" as="geometry">
            <mxPoint x="936.75" y="541.5" as="sourcePoint" />
            <mxPoint x="937" y="562.5" as="targetPoint" />
          </mxGeometry>
        </mxCell>
        <mxCell id="eUsla7bg31HYFWPKL4C8-97" value="" style="rounded=0;whiteSpace=wrap;html=1;container=0;fillColor=#0071C5;" vertex="1" parent="1">
          <mxGeometry x="700" y="722" width="60" height="12" as="geometry" />
        </mxCell>
        <mxCell id="eUsla7bg31HYFWPKL4C8-98" style="edgeStyle=none;rounded=0;orthogonalLoop=1;jettySize=auto;html=1;exitX=1;exitY=1;exitDx=0;exitDy=0;entryX=0;entryY=0;entryDx=0;entryDy=0;" edge="1" parent="1" source="eUsla7bg31HYFWPKL4C8-99" target="eUsla7bg31HYFWPKL4C8-101">
          <mxGeometry relative="1" as="geometry" />
        </mxCell>
        <mxCell id="eUsla7bg31HYFWPKL4C8-99" value="" style="rounded=0;whiteSpace=wrap;html=1;container=0;fillColor=#1A1A1A;" vertex="1" parent="1">
          <mxGeometry x="760" y="722" width="12" height="12" as="geometry" />
        </mxCell>
        <mxCell id="eUsla7bg31HYFWPKL4C8-100" style="edgeStyle=none;rounded=0;orthogonalLoop=1;jettySize=auto;html=1;exitX=1;exitY=0;exitDx=0;exitDy=0;" edge="1" parent="1" source="eUsla7bg31HYFWPKL4C8-101">
          <mxGeometry relative="1" as="geometry">
            <mxPoint x="832" y="734.5" as="targetPoint" />
          </mxGeometry>
        </mxCell>
        <mxCell id="eUsla7bg31HYFWPKL4C8-101" value="" style="rounded=0;whiteSpace=wrap;html=1;container=0;fillColor=#CC0000;" vertex="1" parent="1">
          <mxGeometry x="772" y="761" width="60" height="12" as="geometry" />
        </mxCell>
        <mxCell id="eUsla7bg31HYFWPKL4C8-102" value="" style="rounded=0;whiteSpace=wrap;html=1;container=0;fillColor=#0071C5;" vertex="1" parent="1">
          <mxGeometry x="832" y="722" width="60" height="12" as="geometry" />
        </mxCell>
        <mxCell id="eUsla7bg31HYFWPKL4C8-103" style="edgeStyle=none;rounded=0;orthogonalLoop=1;jettySize=auto;html=1;exitX=1;exitY=0.75;exitDx=0;exitDy=0;entryX=0;entryY=0;entryDx=0;entryDy=0;" edge="1" parent="1" source="eUsla7bg31HYFWPKL4C8-104" target="eUsla7bg31HYFWPKL4C8-106">
          <mxGeometry relative="1" as="geometry" />
        </mxCell>
        <mxCell id="eUsla7bg31HYFWPKL4C8-104" value="" style="rounded=0;whiteSpace=wrap;html=1;container=0;fillColor=#1A1A1A;" vertex="1" parent="1">
          <mxGeometry x="892" y="722" width="12" height="12" as="geometry" />
        </mxCell>
        <mxCell id="eUsla7bg31HYFWPKL4C8-105" style="edgeStyle=none;rounded=0;orthogonalLoop=1;jettySize=auto;html=1;exitX=1;exitY=0;exitDx=0;exitDy=0;" edge="1" parent="1" source="eUsla7bg31HYFWPKL4C8-106">
          <mxGeometry relative="1" as="geometry">
            <mxPoint x="964" y="734.5" as="targetPoint" />
          </mxGeometry>
        </mxCell>
        <mxCell id="eUsla7bg31HYFWPKL4C8-106" value="" style="rounded=0;whiteSpace=wrap;html=1;container=0;fillColor=#CC0000;" vertex="1" parent="1">
          <mxGeometry x="904" y="761" width="60" height="12" as="geometry" />
        </mxCell>
        <mxCell id="eUsla7bg31HYFWPKL4C8-107" value="" style="rounded=0;whiteSpace=wrap;html=1;container=0;fillColor=#0071C5;" vertex="1" parent="1">
          <mxGeometry x="962" y="722" width="81" height="12" as="geometry" />
        </mxCell>
        <mxCell id="eUsla7bg31HYFWPKL4C8-108" style="edgeStyle=none;rounded=0;orthogonalLoop=1;jettySize=auto;html=1;exitX=1;exitY=0.75;exitDx=0;exitDy=0;entryX=0;entryY=0;entryDx=0;entryDy=0;" edge="1" parent="1" source="eUsla7bg31HYFWPKL4C8-109" target="eUsla7bg31HYFWPKL4C8-111">
          <mxGeometry relative="1" as="geometry" />
        </mxCell>
        <mxCell id="eUsla7bg31HYFWPKL4C8-109" value="" style="rounded=0;whiteSpace=wrap;html=1;container=0;fillColor=#1A1A1A;" vertex="1" parent="1">
          <mxGeometry x="1043" y="722" width="12" height="12" as="geometry" />
        </mxCell>
        <mxCell id="eUsla7bg31HYFWPKL4C8-110" style="edgeStyle=none;rounded=0;orthogonalLoop=1;jettySize=auto;html=1;exitX=1;exitY=0;exitDx=0;exitDy=0;" edge="1" parent="1" source="eUsla7bg31HYFWPKL4C8-111">
          <mxGeometry relative="1" as="geometry">
            <mxPoint x="1115" y="734.5" as="targetPoint" />
          </mxGeometry>
        </mxCell>
        <mxCell id="eUsla7bg31HYFWPKL4C8-111" value="" style="rounded=0;whiteSpace=wrap;html=1;container=0;fillColor=#CC0000;" vertex="1" parent="1">
          <mxGeometry x="1055" y="761" width="60" height="12" as="geometry" />
        </mxCell>
        <mxCell id="eUsla7bg31HYFWPKL4C8-112" value="" style="rounded=0;whiteSpace=wrap;html=1;container=0;fillColor=#0071C5;" vertex="1" parent="1">
          <mxGeometry x="1115" y="722" width="45" height="12" as="geometry" />
        </mxCell>
        <mxCell id="eUsla7bg31HYFWPKL4C8-113" style="edgeStyle=none;rounded=0;orthogonalLoop=1;jettySize=auto;html=1;exitX=0;exitY=1;exitDx=0;exitDy=0;entryX=0;entryY=0;entryDx=0;entryDy=0;" edge="1" parent="1" source="eUsla7bg31HYFWPKL4C8-114" target="eUsla7bg31HYFWPKL4C8-117">
          <mxGeometry relative="1" as="geometry" />
        </mxCell>
        <mxCell id="eUsla7bg31HYFWPKL4C8-114" value="" style="rounded=0;whiteSpace=wrap;html=1;container=0;fillColor=#0071C5;" vertex="1" parent="1">
          <mxGeometry x="711" y="841" width="60" height="12" as="geometry" />
        </mxCell>
        <mxCell id="eUsla7bg31HYFWPKL4C8-115" value="" style="rounded=0;whiteSpace=wrap;html=1;container=0;fillColor=#7EA6E0;" vertex="1" parent="1">
          <mxGeometry x="699" y="841" width="12" height="12" as="geometry" />
        </mxCell>
        <mxCell id="eUsla7bg31HYFWPKL4C8-116" style="edgeStyle=none;rounded=0;orthogonalLoop=1;jettySize=auto;html=1;exitX=1;exitY=0;exitDx=0;exitDy=0;entryX=1;entryY=1;entryDx=0;entryDy=0;" edge="1" parent="1" source="eUsla7bg31HYFWPKL4C8-117" target="eUsla7bg31HYFWPKL4C8-114">
          <mxGeometry relative="1" as="geometry" />
        </mxCell>
        <mxCell id="eUsla7bg31HYFWPKL4C8-117" value="" style="rounded=0;whiteSpace=wrap;html=1;container=0;fillColor=#CC0000;" vertex="1" parent="1">
          <mxGeometry x="711" y="883" width="60" height="12" as="geometry" />
        </mxCell>
        <mxCell id="eUsla7bg31HYFWPKL4C8-118" value="" style="rounded=0;whiteSpace=wrap;html=1;container=0;fillColor=#76B900;" vertex="1" parent="1">
          <mxGeometry x="771" y="841" width="12" height="12" as="geometry" />
        </mxCell>
        <mxCell id="eUsla7bg31HYFWPKL4C8-119" value="" style="rounded=0;whiteSpace=wrap;html=1;container=0;fillColor=#0071C5;" vertex="1" parent="1">
          <mxGeometry x="783" y="841" width="27" height="12" as="geometry" />
        </mxCell>
        <mxCell id="eUsla7bg31HYFWPKL4C8-120" style="edgeStyle=none;rounded=0;orthogonalLoop=1;jettySize=auto;html=1;exitX=1;exitY=1;exitDx=0;exitDy=0;entryX=0;entryY=0;entryDx=0;entryDy=0;" edge="1" parent="1" source="eUsla7bg31HYFWPKL4C8-121" target="eUsla7bg31HYFWPKL4C8-123">
          <mxGeometry relative="1" as="geometry" />
        </mxCell>
        <mxCell id="eUsla7bg31HYFWPKL4C8-121" value="" style="rounded=0;whiteSpace=wrap;html=1;container=0;fillColor=#7EA6E0;" vertex="1" parent="1">
          <mxGeometry x="810" y="841" width="12" height="12" as="geometry" />
        </mxCell>
        <mxCell id="eUsla7bg31HYFWPKL4C8-122" style="edgeStyle=none;rounded=0;orthogonalLoop=1;jettySize=auto;html=1;exitX=1;exitY=0;exitDx=0;exitDy=0;entryX=1;entryY=1;entryDx=0;entryDy=0;" edge="1" parent="1" source="eUsla7bg31HYFWPKL4C8-123" target="eUsla7bg31HYFWPKL4C8-124">
          <mxGeometry relative="1" as="geometry" />
        </mxCell>
        <mxCell id="eUsla7bg31HYFWPKL4C8-123" value="" style="rounded=0;whiteSpace=wrap;html=1;container=0;fillColor=#CC0000;" vertex="1" parent="1">
          <mxGeometry x="822" y="882" width="60" height="12" as="geometry" />
        </mxCell>
        <mxCell id="eUsla7bg31HYFWPKL4C8-124" value="" style="rounded=0;whiteSpace=wrap;html=1;container=0;fillColor=#0071C5;" vertex="1" parent="1">
          <mxGeometry x="822" y="841" width="60" height="12" as="geometry" />
        </mxCell>
        <mxCell id="eUsla7bg31HYFWPKL4C8-125" value="" style="rounded=0;whiteSpace=wrap;html=1;container=0;fillColor=#76B900;" vertex="1" parent="1">
          <mxGeometry x="882" y="841" width="12" height="12" as="geometry" />
        </mxCell>
        <mxCell id="eUsla7bg31HYFWPKL4C8-126" style="edgeStyle=none;rounded=0;orthogonalLoop=1;jettySize=auto;html=1;exitX=1;exitY=0.75;exitDx=0;exitDy=0;entryX=0;entryY=0;entryDx=0;entryDy=0;" edge="1" parent="1" source="eUsla7bg31HYFWPKL4C8-127" target="eUsla7bg31HYFWPKL4C8-130">
          <mxGeometry relative="1" as="geometry" />
        </mxCell>
        <mxCell id="eUsla7bg31HYFWPKL4C8-127" value="" style="rounded=0;whiteSpace=wrap;html=1;container=0;fillColor=#7EA6E0;" vertex="1" parent="1">
          <mxGeometry x="975" y="841" width="12" height="12" as="geometry" />
        </mxCell>
        <mxCell id="eUsla7bg31HYFWPKL4C8-128" value="" style="rounded=0;whiteSpace=wrap;html=1;container=0;fillColor=#0071C5;" vertex="1" parent="1">
          <mxGeometry x="894" y="841" width="81" height="12" as="geometry" />
        </mxCell>
        <mxCell id="eUsla7bg31HYFWPKL4C8-129" style="edgeStyle=none;rounded=0;orthogonalLoop=1;jettySize=auto;html=1;exitX=1;exitY=0;exitDx=0;exitDy=0;entryX=1;entryY=1;entryDx=0;entryDy=0;" edge="1" parent="1" source="eUsla7bg31HYFWPKL4C8-130" target="eUsla7bg31HYFWPKL4C8-131">
          <mxGeometry relative="1" as="geometry" />
        </mxCell>
        <mxCell id="eUsla7bg31HYFWPKL4C8-130" value="" style="rounded=0;whiteSpace=wrap;html=1;container=0;fillColor=#CC0000;" vertex="1" parent="1">
          <mxGeometry x="987" y="882" width="60" height="12" as="geometry" />
        </mxCell>
        <mxCell id="eUsla7bg31HYFWPKL4C8-131" value="" style="rounded=0;whiteSpace=wrap;html=1;container=0;fillColor=#0071C5;" vertex="1" parent="1">
          <mxGeometry x="987" y="841" width="60" height="12" as="geometry" />
        </mxCell>
        <mxCell id="eUsla7bg31HYFWPKL4C8-132" value="" style="rounded=0;whiteSpace=wrap;html=1;container=0;fillColor=#76B900;" vertex="1" parent="1">
          <mxGeometry x="1047" y="841" width="12" height="12" as="geometry" />
        </mxCell>
        <mxCell id="eUsla7bg31HYFWPKL4C8-133" value="" style="rounded=0;whiteSpace=wrap;html=1;container=0;fillColor=#0071C5;" vertex="1" parent="1">
          <mxGeometry x="1059" y="841" width="45" height="12" as="geometry" />
        </mxCell>
        <mxCell id="eUsla7bg31HYFWPKL4C8-134" value="" style="endArrow=classic;html=1;rounded=0;strokeWidth=2;" edge="1" parent="1">
          <mxGeometry width="50" height="50" relative="1" as="geometry">
            <mxPoint x="689" y="934.5" as="sourcePoint" />
            <mxPoint x="1184" y="934.5" as="targetPoint" />
          </mxGeometry>
        </mxCell>
        <mxCell id="eUsla7bg31HYFWPKL4C8-135" value="&lt;b&gt;Compution&lt;/b&gt;" style="text;html=1;strokeColor=none;fillColor=none;align=center;verticalAlign=middle;whiteSpace=wrap;rounded=0;" vertex="1" parent="1">
          <mxGeometry x="600" y="718.5" width="70" height="19" as="geometry" />
        </mxCell>
        <mxCell id="eUsla7bg31HYFWPKL4C8-136" value="&lt;b&gt;Memory Delay&lt;/b&gt;" style="text;html=1;strokeColor=none;fillColor=none;align=center;verticalAlign=middle;whiteSpace=wrap;rounded=0;" vertex="1" parent="1">
          <mxGeometry x="585" y="757.5" width="100" height="19" as="geometry" />
        </mxCell>
        <mxCell id="eUsla7bg31HYFWPKL4C8-137" value="&lt;b&gt;Compution&lt;/b&gt;" style="text;html=1;strokeColor=none;fillColor=none;align=center;verticalAlign=middle;whiteSpace=wrap;rounded=0;" vertex="1" parent="1">
          <mxGeometry x="600" y="837.5" width="70" height="19" as="geometry" />
        </mxCell>
        <mxCell id="eUsla7bg31HYFWPKL4C8-138" value="&lt;b&gt;Memory Delay&lt;/b&gt;" style="text;html=1;strokeColor=none;fillColor=none;align=center;verticalAlign=middle;whiteSpace=wrap;rounded=0;" vertex="1" parent="1">
          <mxGeometry x="585" y="878.5" width="100" height="19" as="geometry" />
        </mxCell>
        <mxCell id="eUsla7bg31HYFWPKL4C8-139" value="" style="rounded=0;whiteSpace=wrap;html=1;container=0;fillColor=#0071C5;" vertex="1" parent="1">
          <mxGeometry x="700" y="950" width="12" height="12" as="geometry" />
        </mxCell>
        <mxCell id="eUsla7bg31HYFWPKL4C8-140" value="compution" style="text;html=1;strokeColor=none;fillColor=none;align=center;verticalAlign=middle;whiteSpace=wrap;rounded=0;" vertex="1" parent="1">
          <mxGeometry x="716" y="946.5" width="63" height="19" as="geometry" />
        </mxCell>
        <mxCell id="eUsla7bg31HYFWPKL4C8-141" value="" style="rounded=0;whiteSpace=wrap;html=1;container=0;fillColor=#CC0000;" vertex="1" parent="1">
          <mxGeometry x="793" y="950" width="12" height="12" as="geometry" />
        </mxCell>
        <mxCell id="eUsla7bg31HYFWPKL4C8-142" value="&lt;span style=&quot;font-weight: normal;&quot;&gt;memory access&lt;/span&gt;" style="text;html=1;strokeColor=none;fillColor=none;align=center;verticalAlign=middle;whiteSpace=wrap;rounded=0;fontStyle=1" vertex="1" parent="1">
          <mxGeometry x="803" y="946.5" width="103" height="19" as="geometry" />
        </mxCell>
        <mxCell id="eUsla7bg31HYFWPKL4C8-143" value="" style="rounded=0;whiteSpace=wrap;html=1;container=0;fillColor=#7EA6E0;" vertex="1" parent="1">
          <mxGeometry x="917" y="950" width="12" height="12" as="geometry" />
        </mxCell>
        <mxCell id="eUsla7bg31HYFWPKL4C8-144" value="&lt;span style=&quot;font-weight: normal;&quot;&gt;prefetch&lt;/span&gt;" style="text;html=1;strokeColor=none;fillColor=none;align=center;verticalAlign=middle;whiteSpace=wrap;rounded=0;fontStyle=1" vertex="1" parent="1">
          <mxGeometry x="925" y="946.5" width="63" height="19" as="geometry" />
        </mxCell>
        <mxCell id="eUsla7bg31HYFWPKL4C8-145" value="" style="rounded=0;whiteSpace=wrap;html=1;container=0;fillColor=#76B900;" vertex="1" parent="1">
          <mxGeometry x="1003" y="950" width="12" height="12" as="geometry" />
        </mxCell>
        <mxCell id="eUsla7bg31HYFWPKL4C8-146" value="&lt;span style=&quot;font-weight: normal;&quot;&gt;cache hit&lt;/span&gt;" style="text;html=1;strokeColor=none;fillColor=none;align=center;verticalAlign=middle;whiteSpace=wrap;rounded=0;fontStyle=1" vertex="1" parent="1">
          <mxGeometry x="1013" y="946.5" width="63" height="19" as="geometry" />
        </mxCell>
        <mxCell id="eUsla7bg31HYFWPKL4C8-147" value="" style="rounded=0;whiteSpace=wrap;html=1;container=0;fillColor=#1A1A1A;" vertex="1" parent="1">
          <mxGeometry x="1084" y="950" width="12" height="12" as="geometry" />
        </mxCell>
        <mxCell id="eUsla7bg31HYFWPKL4C8-148" value="cache miss" style="text;html=1;strokeColor=none;fillColor=none;align=center;verticalAlign=middle;whiteSpace=wrap;rounded=0;" vertex="1" parent="1">
          <mxGeometry x="1093" y="946.5" width="78" height="19" as="geometry" />
        </mxCell>
        <mxCell id="eUsla7bg31HYFWPKL4C8-149" value="&lt;b&gt;TimeLine&lt;/b&gt;" style="text;html=1;strokeColor=none;fillColor=none;align=center;verticalAlign=middle;whiteSpace=wrap;rounded=0;" vertex="1" parent="1">
          <mxGeometry x="598" y="923.5" width="70" height="19" as="geometry" />
        </mxCell>
      </root>
    </mxGraphModel>
  </diagram>
</mxfile>
